<svg width="72" height="72" viewBox="0 0 72 72" fill="none" xmlns="http://www.w3.org/2000/svg">
<path fill-rule="evenodd" clip-rule="evenodd" d="M36 0C55.8822 0 72 16.1178 72 36C71.9999 55.8821 55.8821 72 36 72C16.118 71.9999 8.60975e-05 55.882 0 36C0 16.1179 16.1179 0.000103912 36 0ZM37.6819 43.1142C37.6817 46.3015 35.1361 48.9192 31.9683 48.9192C28.8007 48.919 26.2548 46.3014 26.2547 43.1142C26.2547 39.9839 28.7448 37.4216 31.7995 37.3078V30.593C25.0678 30.7068 19.6369 36.2273 19.6369 43.1142C19.637 50.058 25.1812 55.6355 32.0259 55.6355C38.8703 55.6351 44.4135 50.0009 44.4136 43.1142V29.3977C46.9025 31.2189 49.9573 32.2994 53.1816 32.3564V25.6402C48.2038 25.4692 44.3011 21.3716 44.3011 16.3631H37.6819V43.1142Z" fill="#1D266D"/>
</svg>
