<svg width="48" height="48" viewBox="0 0 48 48" fill="none" xmlns="http://www.w3.org/2000/svg">
<path fill-rule="evenodd" clip-rule="evenodd" d="M24 0C37.2548 0 48 10.7452 48 24C47.9999 37.2547 37.2547 48 24 48C10.7453 47.9999 5.73983e-05 37.2547 0 24C0 10.7453 10.7453 6.92747e-05 24 0ZM25.1213 28.7428C25.1212 30.8677 23.424 32.6128 21.3122 32.6128C19.2005 32.6127 17.5032 30.8676 17.5031 28.7428C17.5031 26.6559 19.1632 24.9477 21.1997 24.8719V20.3953C16.7119 20.4712 13.0912 24.1516 13.0912 28.7428C13.0913 33.372 16.7874 37.0903 21.3506 37.0903C25.9135 37.0901 29.609 33.3339 29.6091 28.7428V19.5984C31.2683 20.8126 33.3049 21.5329 35.4544 21.5709V17.0934C32.1358 16.9794 29.5341 14.2478 29.5341 10.9087H25.1213V28.7428Z" fill="#F9F9F8"/>
</svg>
